<svg xmlns="http://www.w3.org/2000/svg"
     xmlns:xlink="http://www.w3.org/1999/xlink"
     version="1.1" id="Слой_1" x="0px" y="0px"
     viewBox="0 0 1784.02 446.76"
     enable-background="new 0 0 1784.02 446.76" xml:space="preserve"
>
<path fill="#FFFFFF" d="M774,375.77c0,10.28,7.41,21.79,21.8,21.79c5.54,0,10.27-1.09,14.2-3.28v-7.62c-5.23,3.2-9.74,4.8-13.51,4.8  c-9.66,0-15.84-7.16-15.84-15.3c0-8.76,5.78-15.23,16.95-15.4c3.94-0.06,8.08,1.64,12.4,5.09v-8.1c-2.85-1.99-7.36-2.99-13.51-2.99  C782.53,354.76,774,365.65,774,375.77z"></path>
    <path fill="#FFFFFF" d="M640.48,103.07c-22.02-8.53-48.51-14.3-79.48-17.31v26.33c33.14,5.45,57.61,11.78,73.41,19.01  c39,17.83,60.63,45.68,65.42,80.05c0.37,2.62-45.91,2.62-138.83,0v29.76c93.02-3.16,139.32-3.16,138.88,0  c-5.4,39.21-33.14,68.7-83.55,86.45c-10.72,3.77-29.16,7.87-55.33,12.29v27.11c31.06-1.07,57.56-6.6,79.48-16.58  c61.04-27.82,91.1-70.72,91.1-123.92C731.58,172.56,703.24,127.39,640.48,103.07z"></path>
    <polygon fill="#FFFFFF" points="879,398.01 886.75,398.01 886.75,362.71 907.5,362.71 907.5,398.01 915,398.01 915,354.76   879,354.76 "></polygon>
    <path fill="#FFFFFF" d="M425.97,364.99c-27.09-20.86-56.1-36.61-87.02-47.23c-13.43,8.75-26.62,14.54-39.56,17.35  c-12.85,2.8-29.48,4.99-49.91,6.59c-20.43-1.6-37.07-3.79-49.92-6.59c-12.94-2.81-26.13-8.6-39.56-17.35  c-30.92,10.62-59.93,26.37-87.02,47.23C45.89,385.85,21.56,412.78,0,445.76h39.13c18.03-21.63,37.43-38.67,58.22-51.11  c20.79-12.45,41.67-20.9,62.65-25.36c15.92,7.64,30.41,12.94,43.47,15.9c12.83,2.9,28.01,4.38,45.53,4.43h0.95  c17.52-0.05,32.7-1.53,45.53-4.43c13.06-2.96,27.55-8.26,43.47-15.9c20.98,4.46,41.86,12.91,62.65,25.36  c20.79,12.44,40.19,29.48,58.22,51.11h39.13C477.39,412.78,453.06,385.85,425.97,364.99z"></path>
    <polygon fill="#FFFFFF" points="887.46,139.76 826,225.06 887.46,312.76 918.46,312.76 857,225.06 918.46,139.76 "></polygon>
    <rect x="774" y="139.76" fill="#FFFFFF" width="31" height="173"></rect>
    <path fill="#FFFFFF" d="M249.37,127.76c-18.61-0.05-34.13,0.83-46.56,2.64c-12.52,1.81-24.21,6.07-35.08,12.76  c-2.31,57.56,0.89,95.16,9.61,112.8c6.05,12.26,17.1,37.49,38.35,46.93c9.25,4.11,20.35,6.2,33.31,6.27h0.73  c12.96-0.07,24.07-2.16,33.31-6.27c21.25-9.44,32.3-34.67,38.35-46.93c8.72-17.64,11.92-55.24,9.61-112.8  c-10.87-6.69-22.56-10.95-35.07-12.76C283.49,128.59,267.97,127.71,249.37,127.76z"></path>
    <rect x="163" y="431.76" fill="#FFFFFF" width="173" height="15"></rect>
    <path fill="#FFFFFF" d="M353.06,94.43c-9.05-23.5-21.97-38.97-29.55-47.63c-5.19-5.94-14.09-14.27-25.51-24.08v43.43  c-0.78,2.25-1.56,3.72-2.35,4.41c-0.78,0.7-2.39,1.33-4.82,1.92h-7.79c-2.59-0.54-4.29-1.18-5.11-1.92  c-0.82-0.73-1.46-2.2-1.93-4.41V3.76c0.01,0.01,0.03,0.01,0.04,0.02V3.3C272.59,1.55,267.25,0.45,260,0v66.29  c-0.81,2.25-1.63,3.72-2.45,4.41c-0.83,0.7-2.51,1.33-5.05,1.92h-8.14c-2.71-0.54-4.49-1.18-5.34-1.92  c-0.86-0.73-1.53-2.2-2.02-4.41V0c-7.19,0.45-12.5,1.53-15.95,3.26c-0.01,0.46-0.03,0.92-0.05,1.38v61.5  c-0.46,2.21-1.11,3.68-1.92,4.41c-0.82,0.74-2.52,1.38-5.11,1.92h-7.79c-2.43-0.59-4.04-1.22-4.83-1.92  c-0.78-0.69-1.57-2.16-2.35-4.41V22.73c-11.42,9.81-20.31,18.13-25.5,24.07c-7.58,8.66-20.5,24.13-29.55,47.63  c-2.49,6.45-4.8,17.57-6.95,33.37c12.01-8.87,24.93-14.64,38.74-17.32c13.76-2.66,38.01-4.11,72.76-4.36  c34.76,0.25,59.01,1.7,72.76,4.36c13.82,2.68,26.73,8.45,38.74,17.32C357.86,112,355.54,100.88,353.06,94.43z"></path>
    <path fill="#FFFFFF" d="M143.43,243.76h6v-104h-6v4.54c-22.95,5.99-34.43,22.38-34.43,49.17C109,220.27,120.48,237.03,143.43,243.76  z"></path>
    <path fill="#FFFFFF" d="M355,139.76h-6v104h6c22.95-6.73,34.43-23.49,34.43-50.29c0-26.79-11.48-43.18-34.43-49.17V139.76z"></path>
    <polygon fill="#FFFFFF" points="1561.28,354.76 1546.87,374.76 1542,374.76 1542,354.76 1534,354.76 1534,374.76 1528.74,374.76   1514.73,354.76 1507.02,354.76 1522.3,376.56 1507.02,397.76 1514.73,397.76 1528.42,378.76 1534,378.76 1534,397.76 1542,397.76   1542,378.76 1547.96,378.76 1561.28,397.76 1568.98,397.76 1553.71,375.96 1568.98,354.76 "></polygon>
    <polygon fill="#FFFFFF" points="1335,312.76 1449.02,312.76 1449.02,281.8 1366,281.8 1366,239.78 1426.99,239.78 1426.99,208.81   1366,208.81 1366,170.73 1449.02,170.73 1449.02,139.76 1335,139.76 "></polygon>
    <path fill="#FFFFFF" d="M1430.84,354.76c-13.96,0-19.84,10.89-19.84,21.01c0,10.28,7.41,21.79,21.8,21.79  c5.54,0,10.27-1.09,14.2-3.28v-3.83c-5.23,0.67-9.74,1.01-13.51,1.01c-10.33,0-14.64-5.87-15.67-13.02  c-0.07-0.5,10.3-0.42,31.11,0.25C1449.34,362.74,1443.31,354.76,1430.84,354.76z M1418,374.76c0.69-9.29,4.99-13.93,12.91-13.93  c7.91,0,11.95,4.64,12.09,13.93H1418z"></path>
    <path fill="#FFFFFF" d="M1337.97,354.76h-29.84c-0.17,7.99-0.5,14.23-0.98,18.7c-0.48,4.47-1.48,10.65-3.01,18.55H1301v18.79h5.1  v-12.79h31.87v12.79h6.02v-21.01h-6.02V354.76z M1331.97,390.76h-21.07c1.54-6.65,2.47-11.74,2.79-15.26  c0.32-3.52,0.41-8.1,0.28-13.74h18V390.76z"></path>
    <path fill="#FFFFFF" d="M1775.15,385.07v-8.86c0-8.79-0.95-16.86-3.75-19.44c-2.99-2.76-8.49-3.25-12.55-3.25  c-3.67,0-8.42,0.7-14.23,2.11v4.87c7.12-1.67,12.21-2.23,15.26-1.69c7.11,1.27,8.21,3.82,8.62,5.04c0.33,0.96,0.74,3.3,1.22,7.02  c-9.11-1.55-16.57-0.88-22.38,2.02c-7.56,3.78-5.56,15.54-3.46,17.56c1.26,1.21,5.91,4.28,12.17,4.12  c5.48-0.14,7.99-1.01,12.45-4.12c1.12-0.78,2.94,0.6,5.48,4.12l6.95-0.29v-3.83C1777.08,389.18,1775.15,387.39,1775.15,385.07z   M1768.74,382.49c-1.05,2.85-3.68,4.97-7.91,6.39c-7.39,2.48-13.34-2-13.34-6.39c0-5.96,7.08-8.47,21.25-7.52V382.49z"></path>
    <path fill="#FFFFFF" d="M1667.97,354.76h-29.84c-0.17,7.99-0.5,14.23-0.98,18.7c-0.48,4.47-1.48,10.65-3.01,18.55H1631v18.79h5.1  v-12.79h31.87v12.79h6.02v-21.01h-6.02V354.76z M1661.97,390.76h-21.07c1.54-6.65,2.47-11.74,2.79-15.26  c0.32-3.52,0.41-8.1,0.28-13.74h18V390.76z"></path>
    <path fill="#FFFFFF" d="M1563,139.76h-66v173h31v-64h35c29.87-0.27,54-24.57,54-54.5S1592.87,140.03,1563,139.76z M1563,221.76h-36  v-55h36c14.96,0.27,27,12.48,27,27.5S1577.96,221.49,1563,221.76z"></path>
    <path fill="#FFFFFF" d="M1003.84,354.76c-13.96,0-19.84,10.89-19.84,21.01c0,10.28,7.41,21.79,21.8,21.79  c5.54,0,10.27-1.09,14.2-3.28v-3.83c-5.23,0.67-9.74,1.01-13.51,1.01c-10.33,0-14.64-5.87-15.67-13.02  c-0.07-0.5,10.3-0.42,31.11,0.25C1022.34,362.74,1016.31,354.76,1003.84,354.76z M991,374.76c0.69-9.29,4.99-13.93,12.91-13.93  c7.91,0,11.95,4.64,12.09,13.93H991z"></path>
    <path fill="#FFFFFF" d="M941,225.31c0,41.36,29.79,87.69,87.71,87.69c22.29,0,41.35-4.4,57.17-13.19v-30.65  c-21.07,12.87-39.2,19.3-54.38,19.3c-38.86,0-63.73-28.83-63.73-61.58c0-35.24,23.26-61.3,68.2-61.97  c15.87-0.23,32.5,6.59,49.91,20.47v-32.57c-11.49-8.03-29.61-12.05-54.38-12.05C975.3,140.76,941,184.57,941,225.31z"></path>
    <polygon fill="#FFFFFF" points="1127,354.76 1119.09,354.76 1119.09,389.78 1098.95,389.79 1098.95,354.76 1091,354.76 1091,398.01   1127,398.01 1127,410.8 1133.02,410.8 1133.02,389.79 1127,389.79 "></polygon>
    <path fill="#FFFFFF" d="M1218,353.76c-12.15,0-22,9.85-22,22s9.85,22,22,22c12.15,0,22-9.85,22-22S1230.15,353.76,1218,353.76z   M1218,392.41c-10.02,0-14.26-8.78-14.26-16.66c0-7.87,4.19-16.53,14.26-16.53c10.08,0,14.26,8.66,14.26,16.53  C1232.26,383.63,1228.03,392.41,1218,392.41z"></path>
    <polygon fill="#FFFFFF" points="1640,139.76 1640,170.73 1696,170.73 1696,312.76 1727,312.76 1727,170.73 1784.02,170.73   1784.02,139.76 "></polygon>
    <polygon fill="#FFFFFF" points="1137,312.76 1168,312.76 1168,171.56 1250.98,171.55 1250.98,312.75 1280.99,312.76 1280.99,139.76   1137,139.76 "></polygon>
</svg>